<svg width="272" height="37" viewBox="0 0 272 37" fill="none" xmlns="http://www.w3.org/2000/svg">
<path d="M149.524 8.52734H142.403C142.029 8.52734 141.725 8.83261 141.725 9.2095V24.8991C141.725 25.276 141.422 25.5812 141.047 25.5812H135.114C134.739 25.5812 134.436 25.276 134.436 24.8991V9.2095C134.436 8.83261 134.132 8.52734 133.758 8.52734H126.637C126.263 8.52734 125.959 8.83261 125.959 9.2095V25.1123C125.959 25.4107 126.088 25.6938 126.314 25.8882L134.054 32.5853C134.3 32.7985 134.614 32.9144 134.939 32.9144H141.224C141.547 32.9144 141.861 32.7968 142.109 32.5853L149.849 25.8882C150.075 25.6938 150.203 25.4107 150.203 25.1123V9.2095C150.202 8.83261 149.898 8.52734 149.524 8.52734ZM124.094 25.5812H109.685C109.31 25.5812 109.006 25.276 109.006 24.8991V9.2095C109.006 8.83261 108.703 8.52734 108.328 8.52734H101.208C100.833 8.52734 100.53 8.83261 100.53 9.2095V20.9767C100.53 27.5697 105.843 32.9144 112.397 32.9144H124.094C124.469 32.9144 124.773 32.6092 124.773 32.2323V26.2634C124.773 25.8865 124.469 25.5812 124.094 25.5812ZM92.0536 8.52734H82.3905C78.3642 8.52734 75.1008 11.8102 75.1008 15.8605V25.5812C75.1008 29.6315 78.3642 32.9144 82.3905 32.9144H92.0536C96.0799 32.9144 99.3433 29.6315 99.3433 25.5812V15.8605C99.3433 11.8102 96.0799 8.52734 92.0536 8.52734ZM92.0536 24.8991C92.0536 25.276 91.7502 25.5812 91.3755 25.5812H83.0686C82.694 25.5812 82.3905 25.276 82.3905 24.8991V16.5427C82.3905 16.1658 82.694 15.8605 83.0686 15.8605H91.3755C91.7502 15.8605 92.0536 16.1658 92.0536 16.5427V24.8991Z" fill="white"/>
<path d="M87.3426 18.0669C86.5815 17.3012 85.3473 17.3012 84.5861 18.0669C83.8249 18.8326 83.8249 20.0741 84.5861 20.8399L87.1036 23.3724C87.8648 24.1381 89.0989 24.1381 89.8601 23.3724C90.6213 22.6066 90.6213 21.3651 89.8601 20.5994L87.3426 18.0669ZM70.6221 20.5278C72.5394 19.8541 73.9143 18.0191 73.9143 15.8601C73.9143 11.8098 70.6509 8.52695 66.6246 8.52695H56.9615C52.9352 8.52695 49.6718 11.8098 49.6718 15.8601C49.6718 18.0191 51.0466 19.8541 52.964 20.5278C53.2369 20.6233 53.2539 21.0002 52.9911 21.1178C51.0365 21.991 49.6718 23.9607 49.6718 26.2511C49.6718 31.3792 54.249 32.914 58.1482 32.914H65.4379C69.337 32.914 73.9143 31.3792 73.9143 26.2528C73.9143 23.9624 72.5513 21.9927 70.5949 21.1195C70.3322 21.0002 70.3491 20.625 70.6221 20.5278ZM65.6362 24.7571C65.8193 24.8066 65.9465 24.972 65.9465 25.1613C65.9465 25.3933 65.76 25.5809 65.5294 25.5809H58.0566C57.8261 25.5809 57.6396 25.3933 57.6396 25.1613C57.6396 24.9703 57.7667 24.8066 57.9498 24.7571C59.7231 24.2813 61.0302 22.6544 61.0302 20.7205C61.0302 18.7866 59.7231 17.1613 57.9498 16.6838C57.7667 16.6344 57.6396 16.469 57.6396 16.2797C57.6396 16.0477 57.8261 15.8601 58.0566 15.8601H65.5294C65.76 15.8601 65.9465 16.0477 65.9465 16.2797C65.9465 16.4707 65.8193 16.6344 65.6362 16.6838C63.863 17.1613 62.5559 18.7866 62.5559 20.7205C62.5559 22.6544 63.863 24.2796 65.6362 24.7571ZM3.64486 0C5.65785 0 7.28971 1.64159 7.28971 3.66659V25.5809C11.5684 25.5809 15.1067 28.77 15.6837 32.9143L8.47641 32.914C3.79502 32.914 0 29.0963 0 24.3871V3.66659C0 1.64159 1.63186 0 3.64486 0ZM24.8359 17.0539C29.1895 17.0539 32.7189 20.6044 32.7189 24.984C32.7189 29.3636 29.1895 32.914 24.8359 32.914L17.0352 32.9143C17.6122 28.77 21.1505 25.5809 25.4292 25.5809V24.3871H24.2425C20.2166 24.3871 16.9528 21.1039 16.9528 17.0539H24.8359ZM25.4292 3.66659C25.4292 1.64159 27.0611 0 29.0741 0C31.0871 0 32.7189 1.64159 32.7189 3.66659V15.8601H25.4292V3.66659Z" fill="white"/>
<path d="M15.7664 8.52734H8.47668V12.1939C8.47668 14.2189 10.1085 15.8605 12.1215 15.8605C14.1345 15.8605 15.7664 14.2189 15.7664 12.1939V8.52734ZM24.2428 8.52734H16.9531V15.8605H24.2428V8.52734Z" fill="white"/>
<path d="M171.228 18.1851C169.833 18.1851 168.673 17.7223 167.748 16.7965C166.834 15.8708 166.377 14.7291 166.377 13.3714C166.377 12.0137 166.834 10.872 167.748 9.94626C168.673 9.02054 169.833 8.55769 171.228 8.55769C172.166 8.55769 173.006 8.77986 173.746 9.2242C174.499 9.66854 175.085 10.2733 175.505 11.0386L174.116 11.8162C173.845 11.2731 173.456 10.8411 172.95 10.5202C172.456 10.1993 171.882 10.0388 171.228 10.0388C170.278 10.0388 169.5 10.3597 168.895 11.0016C168.291 11.6434 167.988 12.4333 167.988 13.3714C167.988 14.3095 168.291 15.0994 168.895 15.7412C169.5 16.3831 170.278 16.704 171.228 16.704C171.882 16.704 172.456 16.5435 172.95 16.2226C173.456 15.9017 173.845 15.4697 174.116 14.9266L175.505 15.7042C175.085 16.4695 174.499 17.0743 173.746 17.5186C173.006 17.9629 172.166 18.1851 171.228 18.1851Z" fill="white"/>
<path d="M177.568 18V4.11426H179.16V18H177.568Z" fill="white"/>
<path d="M186.289 18.1851C184.894 18.1851 183.734 17.7223 182.808 16.7965C181.895 15.8585 181.438 14.7168 181.438 13.3714C181.438 12.026 181.895 10.8905 182.808 9.96477C183.734 9.02672 184.894 8.55769 186.289 8.55769C187.671 8.55769 188.819 9.02672 189.732 9.96477C190.658 10.8905 191.121 12.026 191.121 13.3714C191.121 14.7168 190.658 15.8585 189.732 16.7965C188.819 17.7223 187.671 18.1851 186.289 18.1851ZM183.956 15.7412C184.561 16.3831 185.338 16.704 186.289 16.704C187.239 16.704 188.011 16.3831 188.603 15.7412C189.195 15.0994 189.492 14.3095 189.492 13.3714C189.492 12.4333 189.195 11.6434 188.603 11.0016C188.011 10.3597 187.239 10.0388 186.289 10.0388C185.338 10.0388 184.561 10.3597 183.956 11.0016C183.363 11.6434 183.067 12.4333 183.067 13.3714C183.067 14.3095 183.363 15.0994 183.956 15.7412Z" fill="white"/>
<path d="M196.683 18.1851C195.671 18.1851 194.851 17.8457 194.221 17.1668C193.592 16.4756 193.277 15.5623 193.277 14.4267V8.74283H194.869V14.186C194.869 14.9636 195.054 15.5808 195.425 16.0375C195.807 16.4941 196.319 16.7225 196.961 16.7225C197.702 16.7225 198.313 16.4201 198.794 15.8153C199.288 15.1981 199.535 14.3712 199.535 13.3344V8.74283H201.127V18H199.535V16.5744C198.93 17.6482 197.979 18.1851 196.683 18.1851Z" fill="white"/>
<path d="M207.942 18.1851C206.658 18.1851 205.578 17.7161 204.702 16.778C203.838 15.84 203.406 14.7044 203.406 13.3714C203.406 12.0384 203.838 10.9028 204.702 9.96477C205.578 9.02672 206.658 8.55769 207.942 8.55769C208.621 8.55769 209.25 8.71197 209.831 9.02054C210.423 9.31677 210.88 9.6994 211.201 10.1684V4.11426H212.793V18H211.201V16.5744C210.88 17.0434 210.423 17.4322 209.831 17.7408C209.25 18.037 208.621 18.1851 207.942 18.1851ZM208.183 16.7225C209.096 16.7225 209.849 16.4016 210.441 15.7597C211.034 15.1179 211.33 14.3218 211.33 13.3714C211.33 12.421 211.034 11.6249 210.441 10.9831C209.849 10.3412 209.096 10.0203 208.183 10.0203C207.257 10.0203 206.498 10.3412 205.905 10.9831C205.313 11.6249 205.017 12.421 205.017 13.3714C205.017 14.3218 205.313 15.1179 205.905 15.7597C206.498 16.4016 207.257 16.7225 208.183 16.7225Z" fill="white"/>
<path d="M171.173 33.0994C169.753 33.0994 168.599 32.6427 167.711 31.7294C166.822 30.816 166.377 29.6681 166.377 28.2857C166.377 26.9157 166.828 25.7739 167.729 24.8606C168.63 23.9349 169.784 23.472 171.191 23.472C172.438 23.472 173.481 23.8917 174.32 24.731C175.172 25.5579 175.598 26.6873 175.598 28.1191C175.598 28.3042 175.591 28.4647 175.579 28.6005H167.988C168.013 29.4645 168.321 30.1865 168.914 30.7666C169.519 31.3467 170.278 31.6368 171.191 31.6368C172.487 31.6368 173.45 31.0999 174.079 30.0261L175.338 30.8962C174.437 32.365 173.049 33.0994 171.173 33.0994ZM168.099 27.3045H173.968C173.845 26.5639 173.518 25.9776 172.987 25.5456C172.469 25.1013 171.852 24.8791 171.136 24.8791C170.407 24.8791 169.753 25.1013 169.173 25.5456C168.605 25.9776 168.247 26.5639 168.099 27.3045Z" fill="white"/>
<path d="M183.753 32.9143L180.939 29.4151L178.124 32.9143H176.143L179.939 28.2302L176.458 23.6571H178.384L180.939 27.0082L183.475 23.6571H185.419L181.92 28.2302L185.715 32.9143H183.753Z" fill="white"/>
<path d="M188.942 36.7838H187.35V23.6571H188.942V25.0827C189.263 24.6137 189.713 24.2311 190.293 23.9349C190.886 23.6263 191.521 23.472 192.2 23.472C193.484 23.472 194.558 23.941 195.422 24.8791C196.298 25.8171 196.736 26.9527 196.736 28.2857C196.736 29.6187 196.298 30.7543 195.422 31.6923C194.558 32.6304 193.484 33.0994 192.2 33.0994C191.521 33.0994 190.886 32.9513 190.293 32.6551C189.713 32.3465 189.263 31.9577 188.942 31.4887V36.7838ZM189.701 30.6741C190.293 31.3159 191.046 31.6368 191.96 31.6368C192.873 31.6368 193.626 31.3159 194.218 30.6741C194.811 30.0322 195.107 29.2361 195.107 28.2857C195.107 27.3353 194.811 26.5392 194.218 25.8974C193.626 25.2555 192.873 24.9346 191.96 24.9346C191.046 24.9346 190.293 25.2555 189.701 25.8974C189.108 26.5392 188.812 27.3353 188.812 28.2857C188.812 29.2361 189.108 30.0322 189.701 30.6741Z" fill="white"/>
<path d="M203.103 33.0994C201.683 33.0994 200.529 32.6427 199.64 31.7294C198.752 30.816 198.307 29.6681 198.307 28.2857C198.307 26.9157 198.758 25.7739 199.659 24.8606C200.56 23.9349 201.714 23.472 203.121 23.472C204.368 23.472 205.411 23.8917 206.25 24.731C207.102 25.5579 207.528 26.6873 207.528 28.1191C207.528 28.3042 207.521 28.4647 207.509 28.6005H199.918C199.943 29.4645 200.251 30.1865 200.844 30.7666C201.449 31.3467 202.208 31.6368 203.121 31.6368C204.417 31.6368 205.38 31.0999 206.009 30.0261L207.268 30.8962C206.367 32.365 204.979 33.0994 203.103 33.0994ZM200.029 27.3045H205.898C205.775 26.5639 205.448 25.9776 204.917 25.5456C204.399 25.1013 203.781 24.8791 203.066 24.8791C202.337 24.8791 201.683 25.1013 201.103 25.5456C200.535 25.9776 200.177 26.5639 200.029 27.3045Z" fill="white"/>
<path d="M209.787 32.9143V23.6571H211.379V25.453C211.552 24.8853 211.886 24.4286 212.379 24.083C212.885 23.7374 213.416 23.5646 213.971 23.5646C214.243 23.5646 214.484 23.5893 214.694 23.6386V25.2864C214.471 25.1877 214.181 25.1383 213.823 25.1383C213.182 25.1383 212.614 25.416 212.12 25.9714C211.626 26.5269 211.379 27.3106 211.379 28.3227V32.9143H209.787Z" fill="white"/>
<path d="M218.178 20.8615C217.968 21.0713 217.703 21.1762 217.382 21.1762C217.061 21.1762 216.79 21.0713 216.567 20.8615C216.345 20.6393 216.234 20.3678 216.234 20.0469C216.234 19.7383 216.345 19.4729 216.567 19.2507C216.79 19.0286 217.061 18.9175 217.382 18.9175C217.703 18.9175 217.968 19.0286 218.178 19.2507C218.388 19.4729 218.493 19.7383 218.493 20.0469C218.493 20.3678 218.388 20.6393 218.178 20.8615ZM216.567 32.9143V23.6571H218.16V32.9143H216.567Z" fill="white"/>
<path d="M225.251 33.0994C223.832 33.0994 222.678 32.6427 221.789 31.7294C220.9 30.816 220.456 29.6681 220.456 28.2857C220.456 26.9157 220.906 25.7739 221.807 24.8606C222.708 23.9349 223.862 23.472 225.27 23.472C226.516 23.472 227.559 23.8917 228.398 24.731C229.25 25.5579 229.676 26.6873 229.676 28.1191C229.676 28.3042 229.67 28.4647 229.657 28.6005H222.067C222.091 29.4645 222.4 30.1865 222.992 30.7666C223.597 31.3467 224.356 31.6368 225.27 31.6368C226.566 31.6368 227.528 31.0999 228.158 30.0261L229.417 30.8962C228.516 32.365 227.127 33.0994 225.251 33.0994ZM222.178 27.3045H228.047C227.923 26.5639 227.596 25.9776 227.065 25.5456C226.547 25.1013 225.93 24.8791 225.214 24.8791C224.486 24.8791 223.832 25.1013 223.251 25.5456C222.684 25.9776 222.326 26.5639 222.178 27.3045Z" fill="white"/>
<path d="M231.936 32.9143V23.6571H233.528V25.0827C234.157 24.0089 235.139 23.472 236.472 23.472C237.521 23.472 238.366 23.8114 239.008 24.4903C239.65 25.1691 239.971 26.0763 239.971 27.2119V32.9143H238.397V27.4526C238.397 26.675 238.2 26.064 237.805 25.6197C237.41 25.163 236.879 24.9346 236.212 24.9346C235.447 24.9346 234.805 25.237 234.287 25.8418C233.781 26.4466 233.528 27.2736 233.528 28.3227V32.9143H231.936Z" fill="white"/>
<path d="M246.967 33.0994C245.572 33.0994 244.412 32.6366 243.486 31.7109C242.573 30.7851 242.116 29.6434 242.116 28.2857C242.116 26.928 242.573 25.7863 243.486 24.8606C244.412 23.9349 245.572 23.472 246.967 23.472C247.905 23.472 248.744 23.6942 249.485 24.1385C250.238 24.5829 250.824 25.1877 251.244 25.9529L249.855 26.7305C249.584 26.1874 249.195 25.7554 248.689 25.4345C248.195 25.1136 247.621 24.9531 246.967 24.9531C246.016 24.9531 245.239 25.2741 244.634 25.9159C244.029 26.5577 243.727 27.3477 243.727 28.2857C243.727 29.2238 244.029 30.0137 244.634 30.6555C245.239 31.2974 246.016 31.6183 246.967 31.6183C247.621 31.6183 248.195 31.4578 248.689 31.1369C249.195 30.816 249.584 30.384 249.855 29.8409L251.244 30.6185C250.824 31.3838 250.238 31.9886 249.485 32.4329C248.744 32.8773 247.905 33.0994 246.967 33.0994Z" fill="white"/>
<path d="M257.38 33.0994C255.96 33.0994 254.806 32.6427 253.918 31.7294C253.029 30.816 252.585 29.6681 252.585 28.2857C252.585 26.9157 253.035 25.7739 253.936 24.8606C254.837 23.9349 255.991 23.472 257.398 23.472C258.645 23.472 259.688 23.8917 260.527 24.731C261.379 25.5579 261.805 26.6873 261.805 28.1191C261.805 28.3042 261.799 28.4647 261.786 28.6005H254.195C254.22 29.4645 254.529 30.1865 255.121 30.7666C255.726 31.3467 256.485 31.6368 257.398 31.6368C258.694 31.6368 259.657 31.0999 260.287 30.0261L261.546 30.8962C260.645 32.365 259.256 33.0994 257.38 33.0994ZM254.306 27.3045H260.175C260.052 26.5639 259.725 25.9776 259.194 25.5456C258.676 25.1013 258.059 24.8791 257.343 24.8791C256.615 24.8791 255.96 25.1013 255.38 25.5456C254.813 25.9776 254.455 26.5639 254.306 27.3045Z" fill="white"/>
<path d="M266.86 33.0994C266.008 33.0994 265.262 32.9205 264.62 32.5625C263.978 32.1922 263.515 31.6553 263.231 30.9518L264.527 30.2297C264.7 30.6864 265.003 31.0443 265.435 31.3035C265.867 31.5627 266.348 31.6923 266.879 31.6923C267.335 31.6923 267.718 31.5813 268.027 31.3591C268.335 31.1369 268.489 30.8345 268.489 30.4519C268.489 30.1186 268.366 29.8409 268.119 29.6187C267.885 29.3966 267.471 29.1929 266.879 29.0078L265.953 28.7115C264.41 28.2672 263.639 27.3662 263.639 26.0085C263.639 25.2432 263.941 24.6322 264.546 24.1755C265.163 23.7065 265.922 23.472 266.823 23.472C268.23 23.472 269.248 24.0089 269.878 25.0827L268.693 25.8974C268.187 25.1938 267.545 24.8421 266.768 24.8421C266.348 24.8421 265.984 24.947 265.675 25.1568C265.379 25.3543 265.231 25.6197 265.231 25.9529C265.231 26.2615 265.323 26.5269 265.509 26.749C265.706 26.9589 266.052 27.1378 266.545 27.2859L267.564 27.6007C269.242 28.1191 270.082 29.0263 270.082 30.3223C270.082 31.1863 269.779 31.8651 269.174 32.3589C268.582 32.8526 267.811 33.0994 266.86 33.0994Z" fill="white"/>
</svg>
