<svg width="272" height="36" viewBox="0 0 272 36" fill="none" xmlns="http://www.w3.org/2000/svg">
<path d="M149.524 8.52734H142.404C142.029 8.52734 141.726 8.83261 141.726 9.2095V24.8991C141.726 25.276 141.422 25.5812 141.048 25.5812H135.114C134.739 25.5812 134.436 25.276 134.436 24.8991V9.2095C134.436 8.83261 134.132 8.52734 133.758 8.52734H126.638C126.263 8.52734 125.96 8.83261 125.96 9.2095V25.1123C125.96 25.4107 126.088 25.6938 126.314 25.8882L134.055 32.5853C134.3 32.7985 134.614 32.9144 134.939 32.9144H141.224C141.548 32.9144 141.861 32.7968 142.109 32.5853L149.849 25.8882C150.075 25.6938 150.204 25.4107 150.204 25.1123V9.2095C150.202 8.83261 149.899 8.52734 149.524 8.52734ZM124.095 25.5812H109.685C109.31 25.5812 109.007 25.276 109.007 24.8991V9.2095C109.007 8.83261 108.703 8.52734 108.329 8.52734H101.208C100.834 8.52734 100.53 8.83261 100.53 9.2095V20.9767C100.53 27.5697 105.843 32.9144 112.397 32.9144H124.095C124.469 32.9144 124.773 32.6092 124.773 32.2323V26.2634C124.773 25.8865 124.469 25.5812 124.095 25.5812ZM92.0539 8.52734H82.3908C78.3645 8.52734 75.1011 11.8102 75.1011 15.8605V25.5812C75.1011 29.6315 78.3645 32.9144 82.3908 32.9144H92.0539C96.0802 32.9144 99.3436 29.6315 99.3436 25.5812V15.8605C99.3436 11.8102 96.0802 8.52734 92.0539 8.52734ZM92.0539 24.8991C92.0539 25.276 91.7504 25.5812 91.3758 25.5812H83.0689C82.6942 25.5812 82.3908 25.276 82.3908 24.8991V16.5427C82.3908 16.1658 82.6942 15.8605 83.0689 15.8605H91.3758C91.7504 15.8605 92.0539 16.1658 92.0539 16.5427V24.8991Z" fill="white"/>
<path d="M87.3426 18.0669C86.5815 17.3012 85.3473 17.3012 84.5861 18.0669C83.8249 18.8326 83.8249 20.0741 84.5861 20.8399L87.1036 23.3724C87.8648 24.1381 89.0989 24.1381 89.8601 23.3724C90.6213 22.6066 90.6213 21.3651 89.8601 20.5994L87.3426 18.0669ZM70.6221 20.5278C72.5394 19.8541 73.9143 18.0191 73.9143 15.8601C73.9143 11.8098 70.6509 8.52695 66.6246 8.52695H56.9615C52.9352 8.52695 49.6718 11.8098 49.6718 15.8601C49.6718 18.0191 51.0466 19.8541 52.964 20.5278C53.2369 20.6233 53.2539 21.0002 52.9911 21.1178C51.0365 21.991 49.6718 23.9607 49.6718 26.2511C49.6718 31.3792 54.249 32.914 58.1482 32.914H65.4379C69.337 32.914 73.9143 31.3792 73.9143 26.2528C73.9143 23.9624 72.5513 21.9927 70.5949 21.1195C70.3322 21.0002 70.3491 20.625 70.6221 20.5278ZM65.6362 24.7571C65.8193 24.8066 65.9465 24.972 65.9465 25.1613C65.9465 25.3933 65.76 25.5809 65.5294 25.5809H58.0566C57.8261 25.5809 57.6396 25.3933 57.6396 25.1613C57.6396 24.9703 57.7667 24.8066 57.9498 24.7571C59.7231 24.2813 61.0302 22.6544 61.0302 20.7205C61.0302 18.7866 59.7231 17.1613 57.9498 16.6838C57.7667 16.6344 57.6396 16.469 57.6396 16.2797C57.6396 16.0477 57.8261 15.8601 58.0566 15.8601H65.5294C65.76 15.8601 65.9465 16.0477 65.9465 16.2797C65.9465 16.4707 65.8193 16.6344 65.6362 16.6838C63.863 17.1613 62.5559 18.7866 62.5559 20.7205C62.5559 22.6544 63.863 24.2796 65.6362 24.7571ZM3.64486 0C5.65785 0 7.28971 1.64159 7.28971 3.66659V25.5809C11.5684 25.5809 15.1067 28.77 15.6837 32.9143L8.47641 32.914C3.79502 32.914 0 29.0963 0 24.3871V3.66659C0 1.64159 1.63186 0 3.64486 0ZM24.8359 17.0539C29.1895 17.0539 32.7189 20.6044 32.7189 24.984C32.7189 29.3636 29.1895 32.914 24.8359 32.914L17.0352 32.9143C17.6122 28.77 21.1505 25.5809 25.4292 25.5809V24.3871H24.2425C20.2166 24.3871 16.9528 21.1039 16.9528 17.0539H24.8359ZM25.4292 3.66659C25.4292 1.64159 27.0611 0 29.0741 0C31.0871 0 32.7189 1.64159 32.7189 3.66659V15.8601H25.4292V3.66659Z" fill="white"/>
<path d="M15.7663 8.52734H8.47656V12.1939C8.47656 14.2189 10.1084 15.8605 12.1214 15.8605C14.1344 15.8605 15.7663 14.2189 15.7663 12.1939V8.52734ZM24.2427 8.52734H16.953V15.8605H24.2427V8.52734Z" fill="white"/>
<path d="M166.784 20.176C165.643 20.176 164.656 19.8347 163.824 19.152C162.992 18.4587 162.555 17.4933 162.512 16.256H164.912C164.965 16.768 165.157 17.152 165.488 17.408C165.819 17.664 166.251 17.792 166.784 17.792C167.253 17.792 167.627 17.68 167.904 17.456C168.192 17.2213 168.341 16.9173 168.352 16.544C168.363 16.1387 168.213 15.808 167.904 15.552C167.595 15.296 167.184 15.168 166.672 15.168H165.68V13.232H166.544C167.515 13.232 168.011 12.8213 168.032 12C168.043 11.6587 167.925 11.3813 167.68 11.168C167.435 10.944 167.12 10.832 166.736 10.832C166.267 10.832 165.883 10.9707 165.584 11.248C165.285 11.5253 165.141 11.8613 165.152 12.256H162.736C162.736 11.104 163.136 10.1813 163.936 9.488C164.747 8.79467 165.68 8.448 166.736 8.448C167.899 8.448 168.811 8.77333 169.472 9.424C170.133 10.064 170.464 10.8533 170.464 11.792C170.464 12.304 170.347 12.7787 170.112 13.216C169.888 13.6427 169.611 13.984 169.28 14.24C169.707 14.4533 170.064 14.7733 170.352 15.2C170.64 15.6267 170.784 16.144 170.784 16.752C170.784 17.7547 170.411 18.576 169.664 19.216C168.928 19.856 167.968 20.176 166.784 20.176ZM175.661 20.176C174.627 20.176 173.747 19.7653 173.022 18.944C172.307 18.1227 171.95 17.1413 171.95 16C171.95 14.8587 172.307 13.8773 173.022 13.056C173.747 12.2347 174.627 11.824 175.661 11.824C176.579 11.824 177.304 12.1493 177.838 12.8V8H180.253V20H177.838V19.2C177.304 19.8507 176.579 20.176 175.661 20.176ZM174.878 17.424C175.219 17.7973 175.662 17.984 176.206 17.984C176.75 17.984 177.187 17.7973 177.518 17.424C177.859 17.0507 178.03 16.576 178.03 16C178.03 15.424 177.859 14.9493 177.518 14.576C177.187 14.2027 176.75 14.016 176.206 14.016C175.662 14.016 175.219 14.2027 174.878 14.576C174.547 14.9493 174.382 15.424 174.382 16C174.382 16.576 174.547 17.0507 174.878 17.424ZM173.008 33V28.856C173.008 27.6293 172.624 27.016 171.856 27.016C170.939 27.016 170.459 27.6827 170.416 29.016V33H168V28.856C168 27.6293 167.616 27.016 166.848 27.016C166.4 27.016 166.048 27.192 165.792 27.544C165.536 27.8853 165.408 28.408 165.408 29.112V33H162.992V25H165.408V25.816C165.92 25.1547 166.603 24.824 167.456 24.824C168.576 24.824 169.397 25.2933 169.92 26.232C170.155 25.7733 170.507 25.4267 170.976 25.192C171.445 24.9467 171.915 24.824 172.384 24.824C173.355 24.824 174.101 25.144 174.624 25.784C175.157 26.424 175.424 27.3093 175.424 28.44V33H173.008ZM181.065 33.176C179.827 33.176 178.809 32.7813 178.009 31.992C177.219 31.2027 176.825 30.2 176.825 28.984C176.825 27.7893 177.225 26.7973 178.025 26.008C178.835 25.2187 179.849 24.824 181.065 24.824C181.651 24.824 182.201 24.9253 182.713 25.128C183.235 25.3307 183.694 25.624 184.089 26.008C184.494 26.392 184.809 26.888 185.033 27.496C185.257 28.104 185.358 28.792 185.337 29.56H179.177C179.219 29.9973 179.411 30.3653 179.753 30.664C180.094 30.952 180.574 31.096 181.193 31.096C181.545 31.096 181.865 31.0267 182.153 30.888C182.441 30.7387 182.633 30.5573 182.729 30.344H185.257C185.001 31.1867 184.489 31.8693 183.721 32.392C182.953 32.9147 182.067 33.176 181.065 33.176ZM181.001 26.744C180.542 26.744 180.158 26.8613 179.849 27.096C179.55 27.3307 179.347 27.64 179.241 28.024H182.665C182.547 27.5867 182.329 27.2667 182.009 27.064C181.699 26.8507 181.363 26.744 181.001 26.744ZM190.728 33.096C189.79 33.096 189.016 32.84 188.408 32.328C187.811 31.8053 187.512 31.0533 187.512 30.072V27.096H185.912V25H187.512V22.776H189.928V25H192.168V27.096H189.928V29.576C189.928 30.056 190.035 30.4027 190.248 30.616C190.462 30.8293 190.808 30.936 191.288 30.936C191.651 30.936 191.944 30.888 192.168 30.792V32.936C191.816 33.0427 191.336 33.096 190.728 33.096ZM196.818 33.176C195.783 33.176 194.903 32.7653 194.178 31.944C193.463 31.1227 193.106 30.1413 193.106 29C193.106 27.8587 193.463 26.8773 194.178 26.056C194.903 25.2347 195.783 24.824 196.818 24.824C197.735 24.824 198.46 25.1493 198.994 25.8V25H201.41V33H198.994V32.2C198.46 32.8507 197.735 33.176 196.818 33.176ZM196.034 30.424C196.375 30.7973 196.818 30.984 197.362 30.984C197.906 30.984 198.343 30.7973 198.674 30.424C199.015 30.0507 199.186 29.576 199.186 29C199.186 28.424 199.015 27.9493 198.674 27.576C198.343 27.2027 197.906 27.016 197.362 27.016C196.818 27.016 196.375 27.2027 196.034 27.576C195.703 27.9493 195.538 28.424 195.538 29C195.538 29.576 195.703 30.0507 196.034 30.424ZM206.63 33.176C205.564 33.176 204.684 32.9147 203.99 32.392C203.308 31.8587 202.945 31.192 202.902 30.392H205.446C205.468 30.7013 205.596 30.9413 205.83 31.112C206.065 31.272 206.358 31.352 206.71 31.352C207.308 31.352 207.606 31.1813 207.606 30.84C207.606 30.6693 207.537 30.5413 207.398 30.456C207.27 30.36 207.036 30.264 206.694 30.168L205.078 29.752C203.734 29.4 203.062 28.5627 203.062 27.24C203.062 26.5253 203.361 25.944 203.958 25.496C204.556 25.048 205.372 24.824 206.406 24.824C207.324 24.824 208.086 25.0533 208.694 25.512C209.313 25.96 209.654 26.5947 209.718 27.416H207.286C207.19 26.9253 206.881 26.68 206.358 26.68C205.814 26.68 205.542 26.8507 205.542 27.192C205.542 27.4907 205.814 27.6987 206.358 27.816L207.814 28.2C208.614 28.4133 209.19 28.7227 209.542 29.128C209.894 29.5333 210.07 30.0613 210.07 30.712C210.07 31.448 209.75 32.0453 209.11 32.504C208.47 32.952 207.644 33.176 206.63 33.176ZM212.755 23.912C212.349 23.912 211.997 23.768 211.699 23.48C211.4 23.1813 211.251 22.824 211.251 22.408C211.251 21.992 211.4 21.64 211.699 21.352C211.997 21.0533 212.349 20.904 212.755 20.904C213.181 20.904 213.539 21.0533 213.827 21.352C214.125 21.64 214.275 21.992 214.275 22.408C214.275 22.824 214.125 23.1813 213.827 23.48C213.539 23.768 213.181 23.912 212.755 23.912ZM211.555 33V25H213.971V33H211.555ZM220.041 33.096C219.102 33.096 218.329 32.84 217.721 32.328C217.123 31.8053 216.825 31.0533 216.825 30.072V27.096H215.225V25H216.825V22.776H219.241V25H221.481V27.096H219.241V29.576C219.241 30.056 219.347 30.4027 219.561 30.616C219.774 30.8293 220.121 30.936 220.601 30.936C220.963 30.936 221.257 30.888 221.481 30.792V32.936C221.129 33.0427 220.649 33.096 220.041 33.096ZM226.658 33.176C225.421 33.176 224.402 32.7813 223.602 31.992C222.813 31.2027 222.418 30.2 222.418 28.984C222.418 27.7893 222.818 26.7973 223.618 26.008C224.429 25.2187 225.442 24.824 226.658 24.824C227.245 24.824 227.794 24.9253 228.306 25.128C228.829 25.3307 229.288 25.624 229.682 26.008C230.088 26.392 230.402 26.888 230.626 27.496C230.85 28.104 230.952 28.792 230.93 29.56H224.77C224.813 29.9973 225.005 30.3653 225.346 30.664C225.688 30.952 226.168 31.096 226.786 31.096C227.138 31.096 227.458 31.0267 227.746 30.888C228.034 30.7387 228.226 30.5573 228.322 30.344H230.85C230.594 31.1867 230.082 31.8693 229.314 32.392C228.546 32.9147 227.661 33.176 226.658 33.176ZM226.594 26.744C226.136 26.744 225.752 26.8613 225.442 27.096C225.144 27.3307 224.941 27.64 224.834 28.024H228.258C228.141 27.5867 227.922 27.2667 227.602 27.064C227.293 26.8507 226.957 26.744 226.594 26.744ZM235.661 33.176C234.595 33.176 233.715 32.9147 233.022 32.392C232.339 31.8587 231.976 31.192 231.934 30.392H234.478C234.499 30.7013 234.627 30.9413 234.862 31.112C235.096 31.272 235.39 31.352 235.742 31.352C236.339 31.352 236.638 31.1813 236.638 30.84C236.638 30.6693 236.568 30.5413 236.43 30.456C236.302 30.36 236.067 30.264 235.726 30.168L234.11 29.752C232.766 29.4 232.094 28.5627 232.094 27.24C232.094 26.5253 232.392 25.944 232.99 25.496C233.587 25.048 234.403 24.824 235.438 24.824C236.355 24.824 237.118 25.0533 237.726 25.512C238.344 25.96 238.686 26.5947 238.75 27.416H236.318C236.222 26.9253 235.912 26.68 235.39 26.68C234.846 26.68 234.574 26.8507 234.574 27.192C234.574 27.4907 234.846 27.6987 235.39 27.816L236.846 28.2C237.646 28.4133 238.222 28.7227 238.574 29.128C238.926 29.5333 239.102 30.0613 239.102 30.712C239.102 31.448 238.782 32.0453 238.142 32.504C237.502 32.952 236.675 33.176 235.661 33.176Z" fill="white"/>
</svg>
