<svg width="72" height="72" viewBox="0 0 72 72" fill="none" xmlns="http://www.w3.org/2000/svg">
<rect width="72" height="72" rx="36" fill="#2B2B2B"/>
<path fill-rule="evenodd" clip-rule="evenodd" d="M23.5607 21.4393C22.9749 20.8536 22.0251 20.8536 21.4393 21.4393C20.8536 22.0251 20.8536 22.9749 21.4393 23.5607L23.7433 25.8646C23.5883 26.0991 23.446 26.343 23.3175 26.5953C22.8648 27.4837 22.6761 28.444 22.5867 29.5373C22.5 30.5991 22.5 31.9103 22.5 33.536V33.6002V38.4002V38.4644C22.5 40.0901 22.5 41.4014 22.5867 42.4632C22.6761 43.5564 22.8648 44.5167 23.3175 45.4052C24.0365 46.8164 25.1839 47.9637 26.5951 48.6828C27.4835 49.1355 28.4438 49.3242 29.5371 49.4135C30.5988 49.5003 31.91 49.5002 33.5356 49.5002H33.5358H33.6H38.4H38.4642H38.4644C40.09 49.5002 41.4012 49.5003 42.4629 49.4135C43.5562 49.3242 44.5165 49.1355 45.4049 48.6828C45.6572 48.5542 45.9011 48.412 46.1356 48.257L48.4393 50.5607C49.0251 51.1464 49.9749 51.1464 50.5607 50.5607C51.1464 49.9749 51.1464 49.0251 50.5607 48.4393L23.5607 21.4393ZM43.9387 46.06L38.3076 40.4289L35.6139 42.3523L35.4921 42.4395C34.984 42.8038 34.4733 43.17 33.8831 43.3514C33.3683 43.5096 32.8255 43.5551 32.2915 43.4847C31.6794 43.404 31.1149 43.1279 30.5533 42.8532L30.4187 42.7874L29.6261 42.4017C28.8887 42.0429 28.8017 42.0184 28.7422 42.0093C28.6424 41.9942 28.5405 41.9993 28.4426 42.0245C28.3844 42.0395 28.3003 42.0726 27.6028 42.5039L25.8144 43.6097C25.8664 43.7734 25.9251 43.915 25.9905 44.0432C26.4219 44.8899 27.1103 45.5783 27.957 46.0098C28.3521 46.211 28.8736 46.3493 29.7814 46.4235C30.7066 46.4991 31.8951 46.5002 33.6 46.5002H38.4C40.1049 46.5002 41.2934 46.4991 42.2186 46.4235C43.0488 46.3556 43.5559 46.2342 43.9387 46.06ZM36.157 38.2783L32.2772 34.3986C32.0294 34.4649 31.7688 34.5002 31.5 34.5002C29.8431 34.5002 28.5 33.1571 28.5 31.5002C28.5 31.2314 28.5354 30.9709 28.6017 30.723L25.9402 28.0615C25.766 28.4443 25.6446 28.9515 25.5768 29.7816C25.5012 30.7069 25.5 31.8953 25.5 33.6002V38.4002C25.5 39.1074 25.5002 39.7258 25.5058 40.2733L26.025 39.9523L26.143 39.8791L26.143 39.8791C26.6375 39.572 27.1349 39.2632 27.6953 39.1191C28.1844 38.9932 28.6939 38.9675 29.1932 39.0434C29.7653 39.1304 30.2912 39.3876 30.8142 39.6433L30.9389 39.7042L31.7314 40.0899C32.5255 40.4764 32.6202 40.5021 32.6835 40.5104C32.7903 40.5245 32.8989 40.5154 33.0018 40.4837C33.0628 40.465 33.1519 40.4239 33.8707 39.9107L36.157 38.2783ZM42.2186 25.5768C41.2934 25.5012 40.1049 25.5 38.4 25.5H33C32.1716 25.5 31.5 24.8284 31.5 24C31.5 23.1716 32.1716 22.5 33 22.5L38.4642 22.5C40.0899 22.5 41.4011 22.5 42.4629 22.5867C43.5562 22.6761 44.5165 22.8648 45.4049 23.3175C46.8161 24.0365 47.9635 25.1839 48.6825 26.5951C49.1352 27.4835 49.3239 28.4438 49.4133 29.5371C49.5 30.5989 49.5 31.9101 49.5 33.5358V39C49.5 39.8284 48.8284 40.5 48 40.5C47.1716 40.5 46.5 39.8284 46.5 39V33.6C46.5 31.8951 46.4988 30.7066 46.4232 29.7814C46.3491 28.8736 46.2108 28.3521 46.0095 27.957C45.5781 27.1103 44.8897 26.4219 44.043 25.9905C43.6479 25.7892 43.1264 25.6509 42.2186 25.5768Z" fill="white" fill-opacity="0.45"/>
</svg>
