<svg width="20" height="20" viewBox="0 0 20 20" fill="none" xmlns="http://www.w3.org/2000/svg">
<path fill-rule="evenodd" clip-rule="evenodd" d="M9.02474 5.00016H17.5003C17.9606 5.00016 18.3337 5.37326 18.3337 5.8335C18.3337 6.29373 17.9606 6.66683 17.5003 6.66683H9.02474C8.68154 7.63782 7.75551 8.3335 6.66699 8.3335C5.57848 8.3335 4.65244 7.63782 4.30925 6.66683H2.50033C2.04009 6.66683 1.66699 6.29373 1.66699 5.8335C1.66699 5.37326 2.04009 5.00016 2.50033 5.00016H4.30925C4.65244 4.02917 5.57848 3.3335 6.66699 3.3335C7.75551 3.3335 8.68154 4.02917 9.02474 5.00016ZM5.83366 5.8335C5.83366 6.29373 6.20675 6.66683 6.66699 6.66683C7.12723 6.66683 7.50033 6.29373 7.50033 5.8335C7.50033 5.37326 7.12723 5.00016 6.66699 5.00016C6.20675 5.00016 5.83366 5.37326 5.83366 5.8335ZM15.6914 13.3335H17.5003C17.9606 13.3335 18.3337 13.7066 18.3337 14.1668C18.3337 14.6271 17.9606 15.0002 17.5003 15.0002H15.6914C15.3482 15.9712 14.4222 16.6668 13.3337 16.6668C12.2451 16.6668 11.3191 15.9712 10.9759 15.0002H2.50033C2.04009 15.0002 1.66699 14.6271 1.66699 14.1668C1.66699 13.7066 2.04009 13.3335 2.50033 13.3335H10.9759C11.3191 12.3625 12.2451 11.6668 13.3337 11.6668C14.4222 11.6668 15.3482 12.3625 15.6914 13.3335ZM12.5003 14.1668C12.5003 14.6271 12.8734 15.0002 13.3337 15.0002C13.7939 15.0002 14.167 14.6271 14.167 14.1668C14.167 13.7066 13.7939 13.3335 13.3337 13.3335C12.8734 13.3335 12.5003 13.7066 12.5003 14.1668Z" fill="white"/>
</svg>
