<svg width="16" height="16" viewBox="0 0 16 16" fill="none" xmlns="http://www.w3.org/2000/svg">
<path fill-rule="evenodd" clip-rule="evenodd" d="M8.00096 2.6665C3.92846 2.6665 2.09371 5.85821 1.51416 7.15975C1.27523 7.69634 1.27523 8.30333 1.51416 8.83992C2.09371 10.1415 3.92846 13.3332 8.00096 13.3332C12.0736 13.3332 13.9082 10.1413 14.4876 8.8398C14.7265 8.30328 14.7265 7.6964 14.4876 7.15987C13.9082 5.85838 12.0736 2.6665 8.00096 2.6665ZM10.6674 7.99984C10.6674 9.4726 9.47353 10.6665 8.00077 10.6665C6.52801 10.6665 5.33411 9.4726 5.33411 7.99984C5.33411 6.52708 6.52801 5.33317 8.00077 5.33317C9.47353 5.33317 10.6674 6.52708 10.6674 7.99984ZM8.00065 6.99984C8.00065 7.55212 7.55294 7.99984 7.00065 7.99984C6.88421 7.99984 6.77242 7.97994 6.66849 7.94335C6.66771 7.96208 6.66732 7.98091 6.66732 7.99984C6.66732 8.73622 7.26427 9.33317 8.00065 9.33317C8.73703 9.33317 9.33398 8.73622 9.33398 7.99984C9.33398 7.26346 8.73703 6.6665 8.00065 6.6665C7.98173 6.6665 7.9629 6.6669 7.94416 6.66768C7.98075 6.77161 8.00065 6.8834 8.00065 6.99984Z" fill="white" fill-opacity="0.45"/>
</svg>
