<svg width="413" height="232" viewBox="0 0 413 232" fill="none" xmlns="http://www.w3.org/2000/svg">
<g clip-path="url(#clip0_1_2903)">
<rect width="413" height="232" rx="18" fill="#2B2B2B"/>
<rect x="183" y="92" width="48" height="48" rx="24" fill="#393939"/>
<path fill-rule="evenodd" clip-rule="evenodd" d="M198.707 106.293C198.317 105.902 197.683 105.902 197.293 106.293C196.902 106.683 196.902 107.317 197.293 107.707L198.829 109.243C198.726 109.399 198.631 109.562 198.545 109.73C198.243 110.322 198.117 110.963 198.058 111.692C198 112.399 198 113.274 198 114.357V114.4V117.6V117.643C198 118.727 198 119.601 198.058 120.309C198.117 121.038 198.243 121.678 198.545 122.27C199.024 123.211 199.789 123.976 200.73 124.455C201.322 124.757 201.963 124.883 202.691 124.942C203.399 125 204.273 125 205.357 125H205.357H205.4H208.6H208.643H208.643C209.727 125 210.601 125 211.309 124.942C212.037 124.883 212.678 124.757 213.27 124.455C213.438 124.369 213.601 124.275 213.757 124.171L215.293 125.707C215.683 126.098 216.317 126.098 216.707 125.707C217.098 125.317 217.098 124.683 216.707 124.293L198.707 106.293ZM212.292 122.707L208.538 118.953L206.743 120.235L206.661 120.293C206.323 120.536 205.982 120.78 205.589 120.901C205.246 121.006 204.884 121.037 204.528 120.99C204.12 120.936 203.743 120.752 203.369 120.569L203.279 120.525L202.751 120.268C202.259 120.029 202.201 120.012 202.161 120.006C202.095 119.996 202.027 120 201.962 120.016C201.923 120.026 201.867 120.048 201.402 120.336L200.21 121.073C200.244 121.182 200.283 121.277 200.327 121.362C200.615 121.927 201.074 122.386 201.638 122.673C201.901 122.807 202.249 122.9 202.854 122.949C203.471 122.999 204.263 123 205.4 123H208.6C209.737 123 210.529 122.999 211.146 122.949C211.699 122.904 212.037 122.823 212.292 122.707ZM207.105 117.519L204.518 114.932C204.353 114.977 204.179 115 204 115C202.895 115 202 114.105 202 113C202 112.821 202.024 112.647 202.068 112.482L200.293 110.708C200.177 110.963 200.096 111.301 200.051 111.854C200.001 112.471 200 113.264 200 114.4V117.6C200 118.072 200 118.484 200.004 118.849L200.35 118.635L200.429 118.586L200.429 118.586C200.758 118.381 201.09 118.175 201.464 118.079C201.79 117.995 202.129 117.978 202.462 118.029C202.844 118.087 203.194 118.258 203.543 118.429L203.626 118.469L204.154 118.727C204.684 118.984 204.747 119.001 204.789 119.007C204.86 119.016 204.933 119.01 205.001 118.989C205.042 118.977 205.101 118.949 205.58 118.607L207.105 117.519ZM211.146 109.051C210.529 109.001 209.737 109 208.6 109H205C204.448 109 204 108.552 204 108C204 107.448 204.448 107 205 107L208.643 107C209.727 107 210.601 107 211.309 107.058C212.037 107.117 212.678 107.243 213.27 107.545C214.211 108.024 214.976 108.789 215.455 109.73C215.757 110.322 215.883 110.963 215.942 111.691C216 112.399 216 113.273 216 114.357V118C216 118.552 215.552 119 215 119C214.448 119 214 118.552 214 118V114.4C214 113.263 213.999 112.471 213.949 111.854C213.899 111.249 213.807 110.901 213.673 110.638C213.385 110.074 212.926 109.615 212.362 109.327C212.099 109.193 211.751 109.101 211.146 109.051Z" fill="white" fill-opacity="0.45"/>
</g>
<rect x="0.5" y="0.5" width="412" height="231" rx="17.5" stroke="white" stroke-opacity="0.1"/>
<defs>
<clipPath id="clip0_1_2903">
<rect width="413" height="232" rx="18" fill="white"/>
</clipPath>
</defs>
</svg>
