<svg width="40" height="40" viewBox="0 0 40 40" fill="none" xmlns="http://www.w3.org/2000/svg">
<rect width="40" height="40" rx="20" fill="#2B2B2B"/>
<path fill-rule="evenodd" clip-rule="evenodd" d="M13.0896 11.9106C12.7641 11.5851 12.2365 11.5851 11.9111 11.9106C11.5856 12.236 11.5856 12.7637 11.9111 13.0891L13.191 14.3691C13.1049 14.4993 13.0259 14.6348 12.9545 14.775C12.703 15.2686 12.5981 15.8021 12.5485 16.4094C12.5003 16.9993 12.5003 17.7278 12.5003 18.631V18.6666V21.3333V21.369C12.5003 22.2721 12.5003 23.0006 12.5485 23.5905C12.5981 24.1979 12.703 24.7314 12.9545 25.2249C13.3539 26.0089 13.9914 26.6464 14.7754 27.0458C15.2689 27.2973 15.8024 27.4022 16.4098 27.4518C16.9997 27.5 17.7281 27.5 18.6312 27.5H18.6313H18.667H21.3337H21.3694H21.3694C22.2725 27.5 23.001 27.5 23.5908 27.4518C24.1982 27.4022 24.7317 27.2973 25.2253 27.0458C25.3655 26.9744 25.501 26.8954 25.6312 26.8093L26.9111 28.0891C27.2365 28.4145 27.7641 28.4145 28.0896 28.0891C28.415 27.7637 28.415 27.236 28.0896 26.9106L13.0896 11.9106ZM24.4107 25.5887L21.2823 22.4604L19.7858 23.5289L19.7181 23.5773C19.4359 23.7797 19.1522 23.9832 18.8243 24.0839C18.5383 24.1718 18.2367 24.1971 17.9401 24.158C17.6 24.1132 17.2864 23.9598 16.9744 23.8072L16.8996 23.7706L16.4593 23.5564C16.0496 23.357 16.0013 23.3434 15.9682 23.3384C15.9128 23.3299 15.8561 23.3328 15.8018 23.3468C15.7694 23.3551 15.7227 23.3735 15.3352 23.6131L14.3417 24.2274C14.3706 24.3184 14.4032 24.397 14.4395 24.4683C14.6792 24.9387 15.0616 25.3211 15.532 25.5608C15.7515 25.6726 16.0412 25.7495 16.5455 25.7907C17.0596 25.8327 17.7198 25.8333 18.667 25.8333H21.3337C22.2808 25.8333 22.9411 25.8327 23.4551 25.7907C23.9163 25.753 24.1981 25.6855 24.4107 25.5887ZM20.0875 21.2656L17.9321 19.1102C17.7944 19.147 17.6497 19.1666 17.5003 19.1666C16.5799 19.1666 15.8337 18.4204 15.8337 17.5C15.8337 17.3506 15.8533 17.2059 15.8901 17.0682L14.4116 15.5896C14.3148 15.8022 14.2473 16.084 14.2096 16.5452C14.1676 17.0592 14.167 17.7195 14.167 18.6666V21.3333C14.167 21.7262 14.1671 22.0697 14.1702 22.3739L14.4587 22.1955L14.5242 22.1549L14.5242 22.1549C14.799 21.9843 15.0753 21.8127 15.3866 21.7326C15.6583 21.6627 15.9414 21.6485 16.2188 21.6906C16.5366 21.739 16.8288 21.8818 17.1193 22.0239L17.1886 22.0577L17.6289 22.272C18.0701 22.4867 18.1227 22.501 18.1578 22.5056C18.2172 22.5134 18.2775 22.5084 18.3347 22.4908C18.3686 22.4804 18.4181 22.4576 18.8174 22.1725L20.0875 21.2656ZM23.4551 14.2092C22.9411 14.1672 22.2808 14.1665 21.3337 14.1665H18.3337C17.8734 14.1665 17.5003 13.7934 17.5003 13.3332C17.5003 12.8729 17.8734 12.4998 18.3337 12.4998L21.3693 12.4998C22.2725 12.4998 23.0009 12.4998 23.5908 12.548C24.1982 12.5976 24.7317 12.7025 25.2253 12.954C26.0093 13.3534 26.6467 13.9909 27.0462 14.7749C27.2977 15.2685 27.4025 15.8019 27.4521 16.4093C27.5003 16.9992 27.5003 17.7277 27.5003 18.6309V21.6665C27.5003 22.1267 27.1272 22.4998 26.667 22.4998C26.2068 22.4998 25.8337 22.1267 25.8337 21.6665V18.6665C25.8337 17.7193 25.833 17.0591 25.791 16.545C25.7498 16.0407 25.673 15.751 25.5612 15.5315C25.3215 15.0611 24.939 14.6787 24.4686 14.439C24.2492 14.3272 23.9594 14.2504 23.4551 14.2092Z" fill="white" fill-opacity="0.45"/>
<rect x="0.5" y="0.5" width="39" height="39" rx="19.5" stroke="white" stroke-opacity="0.1"/>
</svg>
